<svg width="165" height="165" viewBox="0 0 165 165" fill="none" xmlns="http://www.w3.org/2000/svg">
<g clip-path="url(#clip0)">
<path d="M76.9478 13.9495L82.6186 13.4897L86.3442 59.4238L80.6734 59.8836L76.9478 13.9495Z" fill="#DBDBDB"/>
<path d="M21.8445 37.0221L25.3397 32.5322L67.3184 65.2118L63.8231 69.7017L21.8445 37.0221Z" fill="#DBDBDB"/>
<path d="M21.3328 24.2533L72.2872 6.22168L74.1854 11.5852L23.2306 29.6168L21.3328 24.2533Z" fill="#DBDBDB"/>
<path d="M83.2952 13.2946L85.7179 8.14648L150.325 38.5509L147.903 43.699L83.2952 13.2946Z" fill="#DBDBDB"/>
<path d="M25.2402 34.5231L25.7548 28.8569L143.615 39.5624L143.1 45.2286L25.2402 34.5231Z" fill="#DBDBDB"/>
<path d="M151.118 49.2775L156.781 48.731L160.089 82.9951L154.426 83.5417L151.118 49.2775Z" fill="#DBDBDB"/>
<path d="M107.674 85.0683L108.132 79.3975L153.499 83.0662L153.041 88.737L107.674 85.0683Z" fill="#DBDBDB"/>
<path d="M142.356 136.941L154.883 91.998L160.364 93.5257L147.837 138.469L142.356 136.941Z" fill="#DBDBDB"/>
<path d="M88.9053 152.539L139.47 139.014L140.94 144.51L90.3753 158.036L88.9053 152.539Z" fill="#DBDBDB"/>
<path d="M35.8513 143.903L149.943 87.0996L152.479 92.1929L38.3871 148.997L35.8513 143.903Z" fill="#DBDBDB"/>
<path d="M8.71558 109.216L13.9536 106.993L30.5105 146.016L25.2725 148.238L8.71558 109.216Z" fill="#DBDBDB"/>
<path d="M6.09375 98.1194L14.1866 36.3472L19.8279 37.0861L11.735 98.8583L6.09375 98.1194Z" fill="#DBDBDB"/>
<path d="M14.0127 95.6128L59.7924 80.021L61.6266 85.407L15.8469 100.998L14.0127 95.6128Z" fill="#DBDBDB"/>
<path d="M33.5405 156.371L33.9584 150.696L79.0692 154.019L78.6513 159.693L33.5405 156.371Z" fill="#DBDBDB"/>
<path d="M83.3962 151.204L145.641 51.2241L150.47 54.2311L88.226 154.211L83.3962 151.204Z" fill="#DBDBDB"/>
<path d="M12.4688 107.637L15.8644 103.072L81.6059 151.969L78.2102 156.534L12.4688 107.637Z" fill="#DBDBDB"/>
<path d="M7.39233 97.4227L73.1295 11.2437L77.6535 14.6944L11.9163 100.874L7.39233 97.4227Z" fill="#DBDBDB"/>
<path d="M98.2178 101.957L102.109 97.8062L141.13 134.383L137.239 138.535L98.2178 101.957Z" fill="#DBDBDB"/>
<path d="M28.8274 144.321L65.3422 94.5464L69.9298 97.9118L33.415 147.687L28.8274 144.321Z" fill="#DBDBDB"/>
<path d="M100.138 67.1381L142.242 45.2329L144.802 50.3536L102.983 72.2588L100.138 67.1381Z" fill="#DBDBDB"/>
<path d="M82.4999 108.103C96.6403 108.103 108.103 96.6403 108.103 82.4999C108.103 68.3595 96.6403 56.8965 82.4999 56.8965C68.3595 56.8965 56.8965 68.3595 56.8965 82.4999C56.8965 96.6403 68.3595 108.103 82.4999 108.103Z" fill="#D6D178"/>
<path d="M79.6551 17.069C84.3685 17.069 88.1896 13.2479 88.1896 8.53448C88.1896 3.82102 84.3685 0 79.6551 0C74.9416 0 71.1206 3.82102 71.1206 8.53448C71.1206 13.2479 74.9416 17.069 79.6551 17.069Z" fill="#83D7C0"/>
<path d="M8.53448 110.948C13.2479 110.948 17.069 107.127 17.069 102.414C17.069 97.7004 13.2479 93.8794 8.53448 93.8794C3.82102 93.8794 0 97.7004 0 102.414C0 107.127 3.82102 110.948 8.53448 110.948Z" fill="#83D7C0"/>
<path d="M82.5001 165C87.2135 165 91.0345 161.179 91.0345 156.466C91.0345 151.752 87.2135 147.931 82.5001 147.931C77.7866 147.931 73.9656 151.752 73.9656 156.466C73.9656 161.179 77.7866 165 82.5001 165Z" fill="#8AB1E3"/>
<path d="M150.776 54.0519C155.489 54.0519 159.31 50.2309 159.31 45.5174C159.31 40.8039 155.489 36.9829 150.776 36.9829C146.062 36.9829 142.241 40.8039 142.241 45.5174C142.241 50.2309 146.062 54.0519 150.776 54.0519Z" fill="#8AB1E3"/>
<path d="M19.9139 39.8278C24.6273 39.8278 28.4484 36.0067 28.4484 31.2933C28.4484 26.5798 24.6273 22.7588 19.9139 22.7588C15.2004 22.7588 11.3794 26.5798 11.3794 31.2933C11.3794 36.0067 15.2004 39.8278 19.9139 39.8278Z" fill="#8AB1E3"/>
<path d="M145.086 150.776C149.8 150.776 153.621 146.955 153.621 142.242C153.621 137.528 149.8 133.707 145.086 133.707C140.373 133.707 136.552 137.528 136.552 142.242C136.552 146.955 140.373 150.776 145.086 150.776Z" fill="#83D7C0"/>
<path d="M156.466 96.7243C161.179 96.7243 165 92.9032 165 88.1898C165 83.4763 161.179 79.6553 156.466 79.6553C151.752 79.6553 147.931 83.4763 147.931 88.1898C147.931 92.9032 151.752 96.7243 156.466 96.7243Z" fill="#8AB1E3"/>
<path d="M31.293 159.31C36.0065 159.31 39.8275 155.489 39.8275 150.776C39.8275 146.062 36.0065 142.241 31.293 142.241C26.5796 142.241 22.7585 146.062 22.7585 150.776C22.7585 155.489 26.5796 159.31 31.293 159.31Z" fill="#83D7C0"/>
<path d="M83.3733 100.889C83.0248 100.889 82.7422 100.606 82.7422 100.257V93.3148C82.7422 92.9662 83.0248 92.6836 83.3733 92.6836C83.7219 92.6836 84.0045 92.9662 84.0045 93.3148V100.257C84.0045 100.606 83.7219 100.889 83.3733 100.889Z" fill="#354457"/>
<path d="M101.677 77.3024C101.726 77.1881 101.704 77.0561 101.622 76.9631C101.54 76.87 101.411 76.8326 101.292 76.8669C95.8071 78.6594 89.8616 82.2065 86.3271 87.0348H86.2955C88.2837 79.5872 86.731 70.7257 83.6888 63.8461C83.6399 63.7326 83.5283 63.6592 83.4048 63.6592C83.2813 63.6592 83.1696 63.7326 83.1208 63.8461C80.0723 70.7888 78.5322 79.625 80.5141 87.0348H80.4825C76.948 82.2507 71.0215 78.672 65.4862 76.8669C65.3668 76.8326 65.2384 76.87 65.1562 76.9631C65.0739 77.0561 65.0525 77.1881 65.1012 77.3024C67.3734 82.3453 71.3812 87.7607 76.4305 90.7902C73.2172 90.7443 70.0406 91.4762 67.1714 92.9236C67.0419 93.0117 66.9644 93.1582 66.9644 93.3149C66.9644 93.4715 67.0419 93.618 67.1714 93.7062C70.4471 95.3157 74.3982 96.2308 78.0715 95.6628C77.2612 96.9532 76.7043 98.3863 76.4305 99.8852C76.4144 100.004 76.4632 100.123 76.5584 100.196C76.6536 100.269 76.7806 100.285 76.8912 100.239C80.2174 99.1973 83.1271 96.7799 83.3732 93.3149C83.6068 96.7799 86.529 99.1973 89.8426 100.258C89.9533 100.304 90.0803 100.288 90.1755 100.215C90.2707 100.141 90.3195 100.023 90.3034 99.9042C90.0315 98.4057 89.4767 96.9726 88.6687 95.6817C92.3357 96.2561 96.2868 95.3346 99.5688 93.7251C99.6983 93.637 99.7758 93.4905 99.7758 93.3338C99.7758 93.1772 99.6983 93.0306 99.5688 92.9425C96.7031 91.4896 93.5287 90.7512 90.316 90.7902C95.3148 87.7796 99.3605 82.3706 101.677 77.3024Z" fill="#647FA3"/>
<path d="M87.1603 79.8648C87.1603 85.9492 85.3615 90.7334 83.4176 93.2707C81.4736 95.8079 83.4176 93.2707 83.386 93.2707C81.3789 90.7208 79.5864 85.9366 79.5864 79.8648C79.695 74.3455 80.8851 68.901 83.0894 63.8397C83.1382 63.7263 83.2499 63.6528 83.3734 63.6528C83.4969 63.6528 83.6085 63.7263 83.6574 63.8397C85.8617 68.901 87.0518 74.3455 87.1603 79.8648Z" fill="#8AB1E3"/>
<path d="M83.3733 93.3145C83.3549 93.3221 83.3395 93.3354 83.3291 93.3523C81.8255 94.5891 80.0071 95.3825 78.0778 95.6434C78.0778 95.7255 73.0727 96.5902 67.1777 93.6932C67.0482 93.605 66.9707 93.4585 66.9707 93.3018C66.9707 93.1452 67.0482 92.9987 67.1777 92.9105C74.07 89.5212 80.4321 90.5247 83.3354 93.2577L83.3733 93.3145Z" fill="#8AB1E3"/>
<path d="M99.5751 93.7062C96.2994 95.3156 92.3484 96.2308 88.675 95.6628C86.7183 95.4078 84.8771 94.5924 83.3733 93.3149C84.4715 92.2166 87.1602 90.9417 90.316 90.7902C93.5219 90.7434 96.6916 91.4709 99.5562 92.9109C99.6933 92.9948 99.7785 93.1426 99.7823 93.3034C99.7861 93.4641 99.7081 93.6158 99.5751 93.7062Z" fill="#8AB1E3"/>
</g>
<defs>
<clipPath id="clip0">
<rect width="165" height="165" fill="white"/>
</clipPath>
</defs>
</svg>
