<svg width="82" height="70" viewBox="0 0 82 70" fill="none" xmlns="http://www.w3.org/2000/svg">
<g clip-path="url(#clip0)">
<path d="M69.1256 38.9535C68.7757 38.2555 67.9274 37.9727 67.2294 38.3209L65.3685 39.2522C64.4371 39.717 63.6012 40.3514 62.9049 41.1255L62.882 28.2741C62.8802 27.4947 62.2475 26.8621 61.4682 26.8621H61.4646C60.6835 26.8638 60.0526 27.4983 60.0526 28.2776L60.0738 40.4062C58.8244 38.9889 57.0271 38.1742 55.1379 38.1706C54.3568 38.1706 53.7241 38.8033 53.7241 39.5844C53.7241 40.3656 54.3568 40.9982 55.1379 40.9982C56.9281 41.0018 58.4692 42.2653 58.8244 44.0202L59.4058 46.9291C59.5383 47.59 60.118 48.0654 60.7913 48.0654C60.885 48.0654 60.9787 48.0566 61.0705 48.0371C61.0953 48.0318 61.1218 48.0248 61.1465 48.0177C61.2614 48.0477 61.3798 48.0637 61.5 48.0637H61.5018C61.6202 48.0637 61.7386 48.0477 61.8534 48.0177C62.6063 48.2156 63.3768 47.7668 63.5747 47.0139C63.6065 46.8955 63.6224 46.7736 63.6207 46.6499C63.6136 44.584 64.7818 42.693 66.6321 41.7758L68.493 40.8445C69.1928 40.5016 69.4755 39.6516 69.1256 38.9535Z" fill="#354457"/>
<path d="M4.24138 52.3103H31.1034V60.7931H4.24138C1.89978 60.7931 0 58.8933 0 56.5517C0 54.2101 1.89978 52.3103 4.24138 52.3103Z" fill="#D6D178"/>
<path d="M22.6206 52.3103H31.1034V60.7931H22.6206V52.3103Z" fill="#C7C270"/>
<path d="M45.2415 57.9656H82.0001C82.0001 64.2128 76.9369 69.2759 70.6897 69.2759H47.7156C46.3495 69.2759 45.2415 68.1679 45.2415 66.8018V57.9656Z" fill="#647FA3"/>
<path d="M31.1035 53.7241H39.5863L45.2414 59.3793V66.4483L38.1725 59.3793H31.1035V53.7241Z" fill="#546985"/>
<path d="M78.0731 56.3165C76.9968 54.7013 75.6237 53.3069 74.0261 52.2042C72.6777 49.6594 70.0339 48.0688 67.1551 48.0688C66.4163 48.0688 65.6794 48.1749 64.9707 48.3816C63.5888 47.2612 61.8639 46.6515 60.0861 46.655C56.4986 46.655 53.3759 49.1097 52.5294 52.5965C50.649 54.0191 49.1239 55.8553 48.0688 57.9654H79.1723L78.0731 56.3165Z" fill="#8AB1E3"/>
<path d="M57.9656 50.8965H60.7932V53.7241H57.9656V50.8965Z" fill="#647FA3"/>
<path d="M65.0344 52.3103H67.862V55.1379H65.0344V52.3103Z" fill="#647FA3"/>
<path d="M78.8987 26.4626L82.0002 25.0842L80.9009 24.7537C75.9173 23.2586 70.5802 23.4424 65.7097 25.2733C70.6315 21.3624 74.3498 16.1419 76.4333 10.2111L77.4389 7.35167L77.0943 7.55136C71.478 10.8119 66.9344 15.6418 64.0238 21.4472C65.7627 14.1679 64.8986 6.58645 61.4683 0.00170898C58.1424 6.65537 57.2517 14.2651 58.9518 21.509C56.0429 15.6771 51.487 10.8243 45.8495 7.55136L45.5049 7.35167L46.5104 10.2111C48.594 16.1419 52.3123 21.3641 57.234 25.2733C52.3635 23.4424 47.0282 23.2586 42.0428 24.7537L40.9436 25.0842L44.0451 26.4626C47.8694 28.1627 52.0755 28.8219 56.2373 28.373C53.21 29.5093 50.7217 31.7484 49.2761 34.6414L48.9245 35.3448L51.0717 34.9878C54.1007 34.4824 56.8488 32.9077 58.8139 30.5485L60.97 27.963L61.4683 27.3639L61.9755 27.963L64.1298 30.5485C66.095 32.9077 68.843 34.4824 71.8721 34.9878L74.0175 35.3448L73.6658 34.6414C72.2185 31.7484 69.732 29.5093 66.7047 28.373C70.8665 28.8201 75.0726 28.1609 78.8987 26.4626Z" fill="#83D7C0"/>
</g>
<defs>
<clipPath id="clip0">
<rect width="82" height="69.2759" fill="white"/>
</clipPath>
</defs>
</svg>
