<svg width="82" height="82" viewBox="0 0 82 82" fill="none" xmlns="http://www.w3.org/2000/svg">
<path d="M34.5938 44.8438H44.8438V76.875H34.5938V44.8438Z" fill="#6DB09E"/>
<path d="M44.8438 32.0312H55.0938V76.875H44.8438V32.0312Z" fill="#7AC4AF"/>
<path d="M55.0938 20.5H65.3438V76.875H55.0938V20.5Z" fill="#7DCEB8"/>
<path d="M65.3438 7.6875H75.5938V76.875H65.3438V7.6875Z" fill="#83D7C0"/>
<path d="M34.5938 75.5938H79.4375V78.1562H34.5938V75.5938Z" fill="#C9DCD6"/>
<path d="M32.0312 17.9375H11.5312C10.172 17.9375 8.86845 18.4775 7.90733 19.4386C6.9462 20.3997 6.40625 21.7033 6.40625 23.0625V28.1875H11.5312V34.5938H29.4688V28.1875H32.0312V17.9375Z" fill="#D6D178"/>
<path d="M23.0625 74.3125L29.4688 71.75V34.5938H11.5312V74.3125L17.9375 71.75L20.5 47.4062L23.0625 74.3125Z" fill="#647FA3"/>
<path d="M14.0938 24.3438C14.0938 23.6361 13.5201 23.0625 12.8125 23.0625C12.1049 23.0625 11.5312 23.6361 11.5312 24.3438V25.625C11.5312 26.3326 12.1049 26.9062 12.8125 26.9062C13.5201 26.9062 14.0938 26.3326 14.0938 25.625V24.3438Z" fill="#C7C270"/>
<path d="M24.3438 21.2505L21.406 18.3128C21.1657 18.0725 20.8398 17.9375 20.5 17.9375C20.1602 17.9375 19.8343 18.0725 19.5941 18.3128L16.6563 21.2505C16.5373 21.3695 16.4429 21.5108 16.3785 21.6662C16.3141 21.8217 16.281 21.9883 16.281 22.1565C16.281 22.3248 16.3141 22.4914 16.3785 22.6468C16.4429 22.8023 16.5373 22.9435 16.6563 23.0625C16.8965 23.3027 17.2224 23.4377 17.5622 23.4377C17.902 23.4377 18.2279 23.3027 18.4682 23.0625L19.2188 22.3119V29.4687H21.7813V22.3119L22.5318 23.0625C22.6508 23.1814 22.7921 23.2758 22.9475 23.3402C23.1029 23.4046 23.2696 23.4377 23.4378 23.4377C23.6061 23.4377 23.7727 23.4046 23.9281 23.3402C24.0836 23.2758 24.2248 23.1814 24.3438 23.0625C24.4627 22.9435 24.5571 22.8023 24.6215 22.6468C24.6859 22.4914 24.719 22.3248 24.719 22.1565C24.719 21.9883 24.6859 21.8217 24.6215 21.6662C24.5571 21.5108 24.4627 21.3695 24.3438 21.2505Z" fill="#C7C270"/>
<path d="M11.5312 74.3125V78.1562H23.0625V75.5938L17.9375 71.75L11.5312 74.3125Z" fill="#8AB1E3"/>
<path d="M47.4062 15.375L49.9688 17.9375V5.125H37.1562L39.7188 7.6875L5.125 42.2812V57.6562L47.4062 15.375Z" fill="#83D7C0"/>
<path d="M43.5625 21.7812H37.1562L34.8591 19.4841C34.775 19.4 34.6751 19.3332 34.5652 19.2877C34.4553 19.2422 34.3375 19.2187 34.2185 19.2188C33.9782 19.2188 33.7478 19.3142 33.5779 19.4841C33.408 19.654 33.3125 19.8844 33.3125 20.1247V21.7812H29.4688V24.3438C29.4688 25.3632 29.8737 26.3408 30.5946 27.0617C31.3154 27.7825 32.2931 28.1875 33.3125 28.1875H41C41.6796 28.1875 42.3314 27.9175 42.812 27.437C43.2925 26.9564 43.5625 26.3046 43.5625 25.625V21.7812Z" fill="#FFCEB6"/>
<path d="M20.5 19.2188C19.4806 19.2188 18.5029 18.8138 17.7821 18.0929C17.0612 17.3721 16.6562 16.3944 16.6562 15.375V14.0938L19.2188 11.5312H24.3438V15.375C24.3438 16.3944 23.9388 17.3721 23.2179 18.0929C22.4971 18.8138 21.5194 19.2188 20.5 19.2188Z" fill="#FFCEB6"/>
<path d="M24.3438 11.5312L24.8289 11.0461C25.0813 10.7937 25.2815 10.4941 25.4181 10.1643C25.5547 9.83455 25.625 9.48112 25.625 9.12419C25.625 8.76727 25.5547 8.41384 25.4181 8.08408C25.2815 7.75432 25.0813 7.4547 24.8289 7.20232C24.5766 6.94993 24.2769 6.74973 23.9472 6.61314C23.6174 6.47655 23.264 6.40625 22.9071 6.40625H20.5C19.4806 6.40625 18.5029 6.81122 17.7821 7.53206C17.0612 8.2529 16.6563 9.23057 16.6562 10.25V14.0938L19.2188 11.5312H24.3438Z" fill="#354457"/>
<path d="M6.40625 26.9063V30.75C6.40625 32.1092 6.9462 33.4128 7.90733 34.3739C8.86845 35.335 10.172 35.875 11.5312 35.875H26.9062C27.9257 35.875 28.9033 35.47 29.6242 34.7492C30.345 34.0283 30.75 33.0507 30.75 32.0312V29.4688H26.9062V27.8122C26.9062 27.5719 26.8108 27.3415 26.6409 27.1716C26.471 27.0017 26.2406 26.9063 26.0003 26.9063C25.8813 26.9062 25.7635 26.9297 25.6536 26.9752C25.5436 27.0207 25.4438 27.0875 25.3596 27.1716L23.0625 29.4688H12.8125V26.9063H6.40625Z" fill="#FFCEB6"/>
<path d="M23.0625 74.3125V78.1562H34.5938V75.5938L29.4688 71.75L23.0625 74.3125Z" fill="#8AB1E3"/>
</svg>
