<svg width="124" height="40" viewBox="0 0 124 40" fill="none" xmlns="http://www.w3.org/2000/svg">
<g clip-path="url(#clip0)">
<path d="M16.1538 16.5386H1.07692V31.0001H0V1.53857H18.2308V2.6155H1.07692V15.3847H16.1538V16.5386Z" fill="#EFF3F6"/>
<path d="M22 31H20.9231V0H22V31Z" fill="#EFF3F6"/>
<path d="M25.0769 19.6921C25.0769 16.4614 26 13.9229 27.6923 11.846C29.3846 9.76904 31.7692 8.76904 34.6154 8.76904C37.4615 8.76904 39.7692 9.76904 41.5384 11.846C43.3077 13.9229 44.1538 16.4614 44.1538 19.6921V20.5383C44.1538 23.769 43.2307 26.3075 41.5384 28.3844C39.7692 30.3844 37.4615 31.4614 34.6923 31.4614C31.8461 31.4614 29.5384 30.4614 27.7692 28.3844C26 26.3075 25.1538 23.769 25.1538 20.5383L25.0769 19.6921ZM26.1538 20.5383C26.1538 23.3075 26.9231 25.6152 28.4615 27.4613C30 29.3844 32.0769 30.3075 34.6923 30.3075C37.2307 30.3075 39.3077 29.3844 40.8461 27.4613C42.3846 25.5383 43.1538 23.2306 43.1538 20.5383V19.6921C43.1538 17.0767 42.3846 14.769 40.8461 12.769C39.3077 10.846 37.2307 9.84597 34.6923 9.84597C32.1538 9.84597 30.0769 10.769 28.5384 12.769C27 14.6921 26.2308 16.9998 26.2308 19.6921L26.1538 20.5383Z" fill="#EFF3F6"/>
<path d="M70.6924 10.231L70.8462 14.6156C71.4616 13.1541 72.4616 11.9233 73.6924 11.1541C74.9231 10.308 76.4616 9.92334 78.3078 9.92334C80.6924 9.92334 82.3847 10.6926 83.6154 12.1541C84.8462 13.6156 85.3847 15.9233 85.3847 19.0772V31.5387H84.3078V18.9233C84.3078 16.0003 83.7693 13.9233 82.6924 12.6926C81.6154 11.4618 80.1539 10.9233 78.3078 10.9233C76.0001 10.9233 74.2308 11.6156 73.077 13.0003C71.8462 14.3849 71.1539 16.0772 70.8462 18.231V31.4618H69.7693V10.231H70.6924Z" fill="#EFF3F6"/>
<path d="M94.0768 26.923L95.0768 29.7692H95.1537L96.1537 26.923L102.692 10.1538H103.846L95.6153 31.3846H94.6153L86.3845 10.1538H87.5384L94.0768 26.923Z" fill="#EFF3F6"/>
<path d="M113.462 27.6151L114.231 29.692H114.308L114.385 29.3844L121.846 10.2305H123.077L113.538 34.9228C112.923 36.4613 112.308 37.6151 111.461 38.5382C110.692 39.4613 109.462 39.9228 107.769 39.9228C107.462 39.9228 107.231 39.8459 106.923 39.8459C106.692 39.769 106.462 39.769 106.231 39.692L106.461 38.692C106.692 38.769 106.923 38.769 107.077 38.769C107.308 38.8459 107.538 38.8459 107.769 38.8459C109 38.8459 109.923 38.4613 110.615 37.769C111.308 37.0767 111.923 35.9997 112.385 34.6151L113.692 31.1536L105.154 10.0767H106.308L113.462 27.6151Z" fill="#EFF3F6"/>
<path d="M46.9231 30.9998H67.1539V29.9229H46.9231V30.9998Z" fill="#83D7C0"/>
<path d="M46.9231 16.3845H64.8462V15.3076H46.9231V16.3845Z" fill="#83D7C0"/>
<path d="M67.1539 2.69216V1.61523H46.9231V2.69216H48.1539H67.1539Z" fill="#83D7C0"/>
</g>
<defs>
<clipPath id="clip0">
<rect width="123.077" height="40" fill="white"/>
</clipPath>
</defs>
</svg>
