<svg width="170" height="55" viewBox="0 0 170 55" fill="none" xmlns="http://www.w3.org/2000/svg">
<g clip-path="url(#clip0)">
<path d="M22.2115 22.7404H1.48077V42.625H0V2.11539H25.0673V3.59616H1.48077V21.1539H22.2115V22.7404Z" fill="#E1E9EF"/>
<path d="M30.2501 42.625H28.7693V0H30.2501V42.625Z" fill="#E1E9EF"/>
<path d="M34.4807 27.0769C34.4807 22.6346 35.7499 19.1442 38.0769 16.2884C40.4038 13.4327 43.6826 12.0577 47.5961 12.0577C51.5096 12.0577 54.6826 13.4327 57.1153 16.2884C59.548 19.1442 60.7115 22.6346 60.7115 27.0769V28.2404C60.7115 32.6827 59.4423 36.1731 57.1153 39.0288C54.6826 41.7788 51.5096 43.2596 47.7019 43.2596C43.7884 43.2596 40.6153 41.8846 38.1826 39.0288C35.7499 36.1731 34.5865 32.6827 34.5865 28.2404L34.4807 27.0769ZM35.9615 28.2404C35.9615 32.0481 37.0192 35.2211 39.1346 37.7596C41.2499 40.4038 44.1057 41.6731 47.7019 41.6731C51.1923 41.6731 54.048 40.4038 56.1634 37.7596C58.2788 35.1154 59.3365 31.9423 59.3365 28.2404V27.0769C59.3365 23.4808 58.2788 20.3077 56.1634 17.5577C54.048 14.9134 51.1923 13.5384 47.7019 13.5384C44.2115 13.5384 41.3557 14.8077 39.2403 17.5577C37.1249 20.2019 36.0673 23.375 36.0673 27.0769L35.9615 28.2404Z" fill="#E1E9EF"/>
<path d="M97.2019 14.0673L97.4134 20.0962C98.2595 18.0865 99.6345 16.3942 101.327 15.3365C103.019 14.1731 105.135 13.6442 107.673 13.6442C110.952 13.6442 113.279 14.7019 114.971 16.7115C116.663 18.7212 117.404 21.8942 117.404 26.2308V43.3654H115.923V26.0192C115.923 22 115.183 19.1442 113.702 17.4519C112.221 15.7596 110.211 15.0192 107.673 15.0192C104.5 15.0192 102.067 15.9711 100.481 17.875C98.7884 19.7788 97.8365 22.1058 97.4134 25.0673V43.2596H95.9326V14.0673H97.2019Z" fill="#E1E9EF"/>
<path d="M129.356 37.0192L130.731 40.9327H130.836L132.212 37.0192L141.202 13.9615H142.788L131.471 43.1538H130.096L118.779 13.9615H120.365L129.356 37.0192Z" fill="#E1E9EF"/>
<path d="M156.01 37.9712L157.067 40.8269H157.173L157.279 40.4038L167.538 14.0673H169.231L156.115 48.0192C155.269 50.1346 154.423 51.7212 153.26 52.9904C152.202 54.2596 150.51 54.8942 148.183 54.8942C147.76 54.8942 147.442 54.7885 147.019 54.7885C146.702 54.6827 146.385 54.6827 146.067 54.5769L146.385 53.2019C146.702 53.3077 147.019 53.3077 147.231 53.3077C147.548 53.4135 147.865 53.4135 148.183 53.4135C149.875 53.4135 151.144 52.8846 152.096 51.9327C153.048 50.9808 153.894 49.5 154.529 47.5962L156.327 42.8365L144.586 13.8558H146.173L156.01 37.9712Z" fill="#E1E9EF"/>
<path d="M64.5193 42.625H92.3366V41.1442H64.5193V42.625Z" fill="#83D7C0"/>
<path d="M64.5193 22.5289H89.1635V21.0481H64.5193V22.5289Z" fill="#83D7C0"/>
<path d="M92.3366 3.70193V2.22116H64.5193V3.70193H66.2116H92.3366Z" fill="#83D7C0"/>
</g>
<defs>
<clipPath id="clip0">
<rect width="169.231" height="55" fill="white"/>
</clipPath>
</defs>
</svg>
