<svg width="25" height="24" viewBox="0 0 25 24" fill="none" xmlns="http://www.w3.org/2000/svg">
<path d="M12.0054 5.8467C8.59935 5.8467 5.85206 8.594 5.85206 12C5.85206 15.406 8.59935 18.1533 12.0054 18.1533C15.4114 18.1533 18.1587 15.406 18.1587 12C18.1587 8.594 15.4114 5.8467 12.0054 5.8467ZM12.0054 16.0004C9.80431 16.0004 8.00491 14.2064 8.00491 12C8.00491 9.7936 9.79895 7.99955 12.0054 7.99955C14.2118 7.99955 16.0058 9.7936 16.0058 12C16.0058 14.2064 14.2064 16.0004 12.0054 16.0004ZM19.8456 5.595C19.8456 6.39295 19.2029 7.03024 18.4104 7.03024C17.6124 7.03024 16.9751 6.38759 16.9751 5.595C16.9751 4.80241 17.6178 4.15977 18.4104 4.15977C19.2029 4.15977 19.8456 4.80241 19.8456 5.595ZM23.921 7.05166C23.83 5.12909 23.3908 3.42608 21.9824 2.02298C20.5793 0.619882 18.8763 0.180743 16.9537 0.0843468C14.9722 -0.0281156 9.03314 -0.0281156 7.05166 0.0843468C5.13444 0.175388 3.43144 0.614526 2.02298 2.01763C0.614527 3.42073 0.180743 5.12373 0.0843468 7.0463C-0.0281156 9.02778 -0.0281156 14.9669 0.0843468 16.9483C0.175388 18.8709 0.614527 20.5739 2.02298 21.977C3.43144 23.3801 5.12909 23.8193 7.05166 23.9157C9.03314 24.0281 14.9722 24.0281 16.9537 23.9157C18.8763 23.8246 20.5793 23.3855 21.9824 21.977C23.3855 20.5739 23.8246 18.8709 23.921 16.9483C24.0335 14.9669 24.0335 9.03314 23.921 7.05166ZM21.3612 19.0744C20.9434 20.1241 20.1348 20.9327 19.0798 21.3558C17.4999 21.9824 13.7512 21.8378 12.0054 21.8378C10.2595 21.8378 6.50541 21.977 4.93094 21.3558C3.88129 20.9381 3.07263 20.1294 2.64956 19.0744C2.02298 17.4946 2.16758 13.7458 2.16758 12C2.16758 10.2542 2.02834 6.50006 2.64956 4.92558C3.06728 3.87593 3.87593 3.06728 4.93094 2.6442C6.51077 2.01763 10.2595 2.16222 12.0054 2.16222C13.7512 2.16222 17.5053 2.02298 19.0798 2.6442C20.1294 3.06192 20.9381 3.87058 21.3612 4.92558C21.9877 6.50541 21.8431 10.2542 21.8431 12C21.8431 13.7458 21.9877 17.4999 21.3612 19.0744Z" fill="#EFF3F6"/>
</svg>
