<svg width="76" height="165" viewBox="0 0 76 165" fill="none" xmlns="http://www.w3.org/2000/svg">
<path d="M56.3008 14.5664C44.1836 13.4062 31.293 13.4062 17.7578 14.5664C14.1484 14.5664 11.1836 17.0156 10.9258 20.1094C10.4102 31.582 10.0234 43.8281 6.80078 44.2148H67.3867C63.6484 42.5391 63.5195 31.0664 63.1328 20.1094C63.0039 17.1445 59.9102 14.5664 56.3008 14.5664Z" fill="#95DDC9"/>
<path d="M17.8867 150.434C30.0039 151.594 42.8945 151.594 56.4297 150.434C60.0391 150.434 63.0039 147.984 63.2617 144.891C63.9063 133.418 64.293 121.172 67.5156 120.785H6.92969C10.668 122.461 10.7969 133.934 11.1836 144.891C11.1836 147.855 14.2773 150.434 17.8867 150.434Z" fill="#97DDCA"/>
<path d="M73.1875 110.859C73.1875 116.531 68.5469 121.172 62.875 121.172H11.3125C5.64062 121.172 1 116.531 1 110.859V52.8516C1 47.1797 5.64062 42.5391 11.3125 42.5391H62.875C68.5469 42.5391 73.1875 47.1797 73.1875 52.8516V110.859Z" fill="#D2D2D6"/>
<path d="M11.3125 118.98C7.05859 118.98 3.57812 115.5 3.57812 111.246V53.2383C3.57812 48.9844 7.05859 45.5039 11.3125 45.5039H62.875C67.1289 45.5039 70.6094 48.9844 70.6094 53.2383V111.246C70.6094 115.5 67.1289 118.98 62.875 118.98H11.3125Z" fill="#5C6877"/>
<path d="M62.875 53.2383H11.3125V111.246H62.875V53.2383Z" fill="#99ABC2"/>
<path d="M73.832 84.5625H71.8984V107.379H73.832V84.5625Z" fill="#A6A6AD"/>
<path d="M73.3164 73.8633H73.1875C74.6055 73.8633 75.7656 72.7031 75.7656 71.2852V60.9727C75.7656 59.5547 74.6055 58.3945 73.1875 58.3945H73.3164C71.7695 58.3945 70.6094 59.5547 70.6094 61.1016V71.1562C70.6094 72.7031 71.7695 73.8633 73.3164 73.8633Z" fill="#A6A6AD"/>
<path opacity="0.1" d="M71.8984 71.1562V61.1016C71.8984 59.6836 71.7695 58.3945 73.3164 58.3945C73.3164 58.3945 73.3164 58.3945 73.1875 58.3945H73.3164C71.7695 58.3945 70.6094 59.5547 70.6094 61.1016V71.1562C70.6094 72.7031 71.7695 73.8633 73.3164 73.8633H73.1875C73.1875 73.8633 73.1875 73.8633 73.3164 73.8633C71.7695 73.8633 71.8984 72.7031 71.8984 71.1562Z" fill="black"/>
<path d="M75.7656 65.4844H73.1875V66.7734H75.7656V65.4844Z" fill="#57575E"/>
<path d="M75.7656 62.9062H73.1875V64.1953H75.7656V62.9062Z" fill="#57575E"/>
<path d="M75.7656 60.3281H73.1875V61.6172H75.7656V60.3281Z" fill="#57575E"/>
<path d="M75.7656 68.0625H73.1875V69.3516H75.7656V68.0625Z" fill="#57575E"/>
<path d="M75.7656 70.6406H73.1875V71.9297H75.7656V70.6406Z" fill="#57575E"/>
<path opacity="0.25" d="M40.3828 115.5L18.8828 94V71.5H54.8828L59.8828 76.5L66.3828 83V115.5H40.3828Z" fill="#6983A6"/>
<path d="M31.4897 82.8246H19.7233V94.2247H18.8828V71H33.1106V71.8489H19.7233V81.915H31.4897V82.8246Z" fill="#E1E9EF"/>
<path d="M38.9575 94.2246H54.8908V93.3765H38.9575V94.2246Z" fill="#83D7C0"/>
<path d="M38.9575 82.7144H53.0733V81.8662H38.9575V82.7144Z" fill="#83D7C0"/>
<path d="M54.8908 71.9302V71.082H38.9575V71.9302H39.9268H54.8908Z" fill="#83D7C0"/>
</svg>
