<svg width="82" height="82" viewBox="0 0 82 82" fill="none" xmlns="http://www.w3.org/2000/svg">
<path d="M57.8164 12.1719V16.9766C57.8164 18.3217 56.7595 19.3789 55.4141 19.3789H53.0117V12.1719C53.0117 10.8264 51.9548 9.76953 50.6094 9.76953H31.3906C30.0452 9.76953 28.9883 10.8264 28.9883 12.1719V19.3789H26.5859C25.2405 19.3789 24.1836 18.3217 24.1836 16.9766V12.1719C24.1836 8.18382 27.4026 4.96484 31.3906 4.96484H50.6094C54.5974 4.96484 57.8164 8.18382 57.8164 12.1719Z" fill="#3F5167"/>
<path d="M50.6094 9.76953H41V4.96484H50.6094C54.5974 4.96484 57.8164 8.18382 57.8164 12.1719V16.9766C57.8164 18.3217 56.7595 19.3789 55.4141 19.3789H53.0117V12.1719C53.0117 10.8264 51.9548 9.76953 50.6094 9.76953Z" fill="#354457"/>
<path d="M82 16.9766V69.8282C82 73.8159 78.781 77.0352 74.793 77.0352H7.20703C3.21898 77.0352 0 73.8159 0 69.8282V16.9766C0 16.304 0.288281 15.7274 0.720863 15.2948L12.9727 42.8739H69.0273L81.2793 15.2947C81.7117 15.7274 82 16.304 82 16.9766Z" fill="#3F5167"/>
<path d="M82 16.9766V69.8282C82 73.8159 78.781 77.0352 74.793 77.0352H41V42.8739H69.0273L81.2793 15.2947C81.7117 15.7274 82 16.304 82 16.9766Z" fill="#354457"/>
<path d="M81.2792 15.2948L73.8321 42.8738C72.9673 46.0448 70.1327 48.207 66.8653 48.207H15.135C11.8675 48.207 9.0329 46.0449 8.16805 42.8738L0.720947 15.2948C1.15321 14.8625 1.72977 14.5742 2.40243 14.5742H79.5977C80.2704 14.5742 80.8469 14.8625 81.2792 15.2948Z" fill="#4A607B"/>
<path d="M81.2791 15.2948L73.832 42.8738C72.9672 46.0448 70.1326 48.207 66.8652 48.207H41V14.5742H79.5977C80.2703 14.5742 80.8469 14.8625 81.2791 15.2948Z" fill="#3F5167"/>
<path d="M50.6094 41H31.3906C30.0452 41 28.9883 42.0569 28.9883 43.4023V53.0117C28.9883 54.3569 30.0452 55.4141 31.3906 55.4141H50.6094C51.9548 55.4141 53.0117 54.3569 53.0117 53.0117V43.4023C53.0117 42.0569 51.9548 41 50.6094 41Z" fill="#D6D178"/>
<path d="M53.0117 43.4023V53.0117C53.0117 54.3569 51.9548 55.4141 50.6094 55.4141H41V41H50.6094C51.9548 41 53.0117 42.0569 53.0117 43.4023Z" fill="#C7C270"/>
</svg>
