<svg width="148" height="165" viewBox="0 0 148 165" fill="none" xmlns="http://www.w3.org/2000/svg">
<path d="M126.437 18.0469H10.9375C5.62176 18.0469 1.3125 22.3561 1.3125 27.6719V124.437C1.3125 129.753 5.62176 134.062 10.9375 134.062H126.437C131.753 134.062 136.062 129.753 136.062 124.437V27.6719C136.062 22.3561 131.753 18.0469 126.437 18.0469Z" fill="#647FA3"/>
<path d="M10.9375 45.2007V137.328C10.9375 138.592 11.1864 139.844 11.6701 141.011C12.1538 142.179 12.8628 143.24 13.7566 144.134C14.6503 145.028 15.7114 145.737 16.8792 146.22C18.0469 146.704 19.2985 146.953 20.5625 146.953H136.062C137.326 146.953 138.578 146.704 139.746 146.22C140.914 145.737 141.975 145.028 142.868 144.134C143.762 143.24 144.471 142.179 144.955 141.011C145.439 139.844 145.688 138.592 145.687 137.328V45.2007H10.9375Z" fill="#F4F4F4"/>
<path d="M136.062 30.7632H20.5625C19.2985 30.7632 18.0469 31.0121 16.8792 31.4958C15.7114 31.9795 14.6503 32.6885 13.7566 33.5823C12.8628 34.4761 12.1538 35.5371 11.6701 36.7049C11.1864 37.8726 10.9375 39.1242 10.9375 40.3882V64.4555H54.25C56.8027 64.4555 59.2509 63.4414 61.0559 61.6364C62.8609 59.8314 63.875 57.3832 63.875 54.8305V52.4194H145.687V40.3882C145.687 37.8355 144.673 35.3873 142.868 33.5823C141.063 31.7772 138.615 30.7632 136.062 30.7632Z" fill="#8AB1E3"/>
<path d="M22.9687 50.018C25.6266 50.018 27.7812 47.8634 27.7812 45.2056C27.7812 42.5477 25.6266 40.3931 22.9687 40.3931C20.3109 40.3931 18.1562 42.5477 18.1562 45.2056C18.1562 47.8634 20.3109 50.018 22.9687 50.018Z" fill="white"/>
<path d="M35 50.018C37.6578 50.018 39.8125 47.8634 39.8125 45.2056C39.8125 42.5477 37.6578 40.3931 35 40.3931C32.3421 40.3931 30.1875 42.5477 30.1875 45.2056C30.1875 47.8634 32.3421 50.018 35 50.018Z" fill="white"/>
<path d="M47.0312 50.018C49.6891 50.018 51.8437 47.8634 51.8437 45.2056C51.8437 42.5477 49.6891 40.3931 47.0312 40.3931C44.3734 40.3931 42.2188 42.5477 42.2188 45.2056C42.2188 47.8634 44.3734 50.018 47.0312 50.018Z" fill="white"/>
<path d="M128.285 94.4238H87.0352C84.9047 94.4238 84.9018 91.2012 87.0352 91.2012H128.285C130.416 91.2012 130.419 94.4238 128.285 94.4238Z" fill="#83D7C0"/>
<path d="M128.285 84.1113H87.0352C84.9047 84.1113 84.9018 80.8887 87.0352 80.8887H128.285C130.416 80.8887 130.419 84.1113 128.285 84.1113Z" fill="#83D7C0"/>
<path d="M117.973 73.7988H97.3477C95.2172 73.7988 95.2143 70.5762 97.3477 70.5762H117.973C120.103 70.5762 120.106 73.7988 117.973 73.7988Z" fill="#83D7C0"/>
<path d="M128.285 104.736H87.0352C84.9047 104.736 84.9018 101.514 87.0352 101.514H128.285C130.416 101.514 130.419 104.736 128.285 104.736Z" fill="#83D7C0"/>
<path d="M128.285 115.049H87.0352C84.9047 115.049 84.9018 111.826 87.0352 111.826H128.285C130.416 111.826 130.419 115.049 128.285 115.049Z" fill="#83D7C0"/>
<path d="M128.285 125.361H87.0352C84.9047 125.361 84.9018 122.139 87.0352 122.139H128.285C130.416 122.139 130.419 125.361 128.285 125.361Z" fill="#83D7C0"/>
<path d="M128.285 135.674H87.0352C84.9047 135.674 84.9018 132.451 87.0352 132.451H128.285C130.416 132.451 130.419 135.674 128.285 135.674Z" fill="#83D7C0"/>
<path d="M47.1005 132.451C46.6028 132.451 46.1992 132.047 46.1992 131.55V121.635C46.1992 121.137 46.6028 120.734 47.1005 120.734C47.5983 120.734 48.0019 121.137 48.0019 121.635V131.55C48.0019 132.047 47.5983 132.451 47.1005 132.451Z" fill="#354457"/>
<path d="M73.2384 98.7694C73.3079 98.6063 73.2774 98.4177 73.1599 98.2849C73.0425 98.152 72.8591 98.0986 72.6886 98.1475C64.8562 100.707 56.3659 105.773 51.3186 112.668H51.2735C54.1126 102.032 51.8954 89.3778 47.5511 79.5535C47.4813 79.3915 47.3218 79.2866 47.1455 79.2866C46.9691 79.2866 46.8097 79.3915 46.7399 79.5535C42.3866 89.4679 40.1874 102.086 43.0175 112.668H42.9724C37.9251 105.836 29.4618 100.725 21.5573 98.1475C21.3868 98.0986 21.2034 98.152 21.086 98.2849C20.9685 98.4177 20.938 98.6063 21.0075 98.7694C24.2522 105.971 29.9755 113.704 37.186 118.03C32.5974 117.965 28.061 119.01 23.9638 121.077C23.7788 121.203 23.6681 121.412 23.6681 121.636C23.6681 121.859 23.7788 122.069 23.9638 122.195C28.6416 124.493 34.2838 125.8 39.5294 124.989C38.3723 126.831 37.577 128.878 37.186 131.018C37.163 131.188 37.2327 131.357 37.3686 131.462C37.5046 131.566 37.6859 131.589 37.844 131.523C42.5939 130.036 46.7489 126.584 47.1004 121.636C47.4339 126.584 51.607 130.036 56.3389 131.55C56.4969 131.616 56.6783 131.593 56.8142 131.489C56.9501 131.384 57.0198 131.215 56.9968 131.045C56.6086 128.905 55.8164 126.859 54.6624 125.016C59.899 125.836 65.5412 124.52 70.2281 122.222C70.413 122.096 70.5237 121.886 70.5237 121.663C70.5237 121.439 70.413 121.23 70.2281 121.104C66.1359 119.029 61.6026 117.975 57.0148 118.03C64.1532 113.731 69.9306 106.007 73.2384 98.7694Z" fill="#647FA3"/>
<path d="M52.5083 102.429C52.5083 111.117 49.9396 117.949 47.1636 121.572C44.3875 125.196 47.1636 121.572 47.1185 121.572C44.2523 117.931 41.6926 111.099 41.6926 102.429C41.8476 94.5467 43.5471 86.7718 46.6949 79.5442C46.7647 79.3823 46.9241 79.2773 47.1005 79.2773C47.2768 79.2773 47.4363 79.3823 47.5061 79.5442C50.6538 86.7718 52.3534 94.5467 52.5083 102.429Z" fill="#8AB1E3"/>
<path d="M47.1005 121.635C47.0743 121.646 47.0522 121.665 47.0374 121.689C44.8903 123.455 42.2936 124.588 39.5385 124.961C39.5385 125.078 32.3911 126.313 23.9729 122.176C23.7879 122.05 23.6772 121.841 23.6772 121.617C23.6772 121.393 23.7879 121.184 23.9729 121.058C33.8152 116.218 42.9004 117.651 47.0464 121.554L47.1005 121.635Z" fill="#8AB1E3"/>
<path d="M70.2372 122.194C65.5594 124.493 59.9172 125.8 54.6716 124.989C51.8774 124.624 49.2481 123.46 47.1006 121.636C48.6689 120.067 52.5085 118.247 57.015 118.03C61.593 117.964 66.1195 119.002 70.2102 121.059C70.406 121.179 70.5276 121.39 70.5331 121.619C70.5385 121.849 70.4271 122.065 70.2372 122.194Z" fill="#8AB1E3"/>
</svg>
