<svg width="150" height="150" viewBox="0 0 150 150" fill="none" xmlns="http://www.w3.org/2000/svg">
<circle cx="5" cy="5" r="5" fill="#83D7C0"/>
<circle cx="5" cy="25" r="5" fill="#83D7C0"/>
<circle cx="5" cy="45" r="5" fill="#83D7C0"/>
<circle cx="5" cy="65" r="5" fill="#83D7C0"/>
<circle cx="5" cy="85" r="5" fill="#83D7C0"/>
<circle cx="5" cy="105" r="5" fill="#83D7C0"/>
<circle cx="5" cy="125" r="5" fill="#83D7C0"/>
<circle cx="5" cy="145" r="5" fill="#83D7C0"/>
<circle cx="25" cy="5" r="5" fill="#83D7C0"/>
<circle cx="25" cy="25" r="5" fill="#83D7C0"/>
<circle cx="25" cy="45" r="5" fill="#83D7C0"/>
<circle cx="25" cy="65" r="5" fill="#83D7C0"/>
<circle cx="25" cy="85" r="5" fill="#83D7C0"/>
<circle cx="25" cy="105" r="5" fill="#83D7C0"/>
<circle cx="25" cy="125" r="5" fill="#83D7C0"/>
<circle cx="25" cy="145" r="5" fill="#83D7C0"/>
<circle cx="45" cy="5" r="5" fill="#83D7C0"/>
<circle cx="45" cy="25" r="5" fill="#83D7C0"/>
<circle cx="45" cy="45" r="5" fill="#83D7C0"/>
<circle cx="45" cy="65" r="5" fill="#83D7C0"/>
<circle cx="45" cy="85" r="5" fill="#83D7C0"/>
<circle cx="45" cy="105" r="5" fill="#83D7C0"/>
<circle cx="45" cy="125" r="5" fill="#83D7C0"/>
<circle cx="45" cy="145" r="5" fill="#83D7C0"/>
<circle cx="65" cy="5" r="5" fill="#83D7C0"/>
<circle cx="65" cy="25" r="5" fill="#83D7C0"/>
<circle cx="65" cy="45" r="5" fill="#83D7C0"/>
<circle cx="65" cy="65" r="5" fill="#83D7C0"/>
<circle cx="65" cy="85" r="5" fill="#83D7C0"/>
<circle cx="65" cy="105" r="5" fill="#83D7C0"/>
<circle cx="65" cy="125" r="5" fill="#83D7C0"/>
<circle cx="65" cy="145" r="5" fill="#83D7C0"/>
<circle cx="85" cy="5" r="5" fill="#83D7C0"/>
<circle cx="85" cy="25" r="5" fill="#83D7C0"/>
<circle cx="85" cy="45" r="5" fill="#83D7C0"/>
<circle cx="85" cy="65" r="5" fill="#83D7C0"/>
<circle cx="85" cy="85" r="5" fill="#83D7C0"/>
<circle cx="85" cy="105" r="5" fill="#83D7C0"/>
<circle cx="85" cy="125" r="5" fill="#83D7C0"/>
<circle cx="85" cy="145" r="5" fill="#83D7C0"/>
<circle cx="105" cy="5" r="5" fill="#83D7C0"/>
<circle cx="105" cy="25" r="5" fill="#83D7C0"/>
<circle cx="105" cy="45" r="5" fill="#83D7C0"/>
<circle cx="105" cy="65" r="5" fill="#83D7C0"/>
<circle cx="105" cy="85" r="5" fill="#83D7C0"/>
<circle cx="105" cy="105" r="5" fill="#83D7C0"/>
<circle cx="105" cy="125" r="5" fill="#83D7C0"/>
<circle cx="105" cy="145" r="5" fill="#83D7C0"/>
<circle cx="125" cy="5" r="5" fill="#83D7C0"/>
<circle cx="125" cy="25" r="5" fill="#83D7C0"/>
<circle cx="125" cy="45" r="5" fill="#83D7C0"/>
<circle cx="125" cy="65" r="5" fill="#83D7C0"/>
<circle cx="125" cy="85" r="5" fill="#83D7C0"/>
<circle cx="125" cy="105" r="5" fill="#83D7C0"/>
<circle cx="125" cy="125" r="5" fill="#83D7C0"/>
<circle cx="125" cy="145" r="5" fill="#83D7C0"/>
<circle cx="145" cy="5" r="5" fill="#83D7C0"/>
<circle cx="145" cy="25" r="5" fill="#83D7C0"/>
<circle cx="145" cy="45" r="5" fill="#83D7C0"/>
<circle cx="145" cy="65" r="5" fill="#83D7C0"/>
<circle cx="145" cy="85" r="5" fill="#83D7C0"/>
<circle cx="145" cy="105" r="5" fill="#83D7C0"/>
<circle cx="145" cy="125" r="5" fill="#83D7C0"/>
<circle cx="145" cy="145" r="5" fill="#83D7C0"/>
</svg>
